<?xml version="1.0" encoding="UTF-8" standalone="no"?>
<svg width="19px" height="14px" viewBox="0 0 19 14" version="1.1" xmlns="http://www.w3.org/2000/svg" xmlns:xlink="http://www.w3.org/1999/xlink" xmlns:sketch="http://www.bohemiancoding.com/sketch/ns">
    <!-- Generator: Sketch 3.3.3 (12081) - http://www.bohemiancoding.com/sketch -->
    <title>Icon-menu</title>
    <desc>Created with Sketch.</desc>
    <defs></defs>
    <g id="Screens" stroke="none" stroke-width="1" fill="none" fill-rule="evenodd" sketch:type="MSPage">
        <g id="Main-view---list" sketch:type="MSArtboardGroup" transform="translate(-16.000000, -41.000000)" fill="#0FEF00">
            <g sketch:type="MSLayerGroup" id="Navigation-Bar-">
                <g transform="translate(0.000000, 20.000000)" sketch:type="MSShapeGroup">
                    <g id="Icon-menu">
                        <path d="M16,22 C16,21.4477153 16.4509254,21 16.9947712,21 L34.0052288,21 C34.5546258,21 35,21.4438648 35,22 L35,22 C35,22.5522847 34.5490746,23 34.0052288,23 L16.9947712,23 C16.4453742,23 16,22.5561352 16,22 L16,22 Z M16,28 C16,27.4477153 16.4509254,27 16.9947712,27 L34.0052288,27 C34.5546258,27 35,27.4438648 35,28 L35,28 C35,28.5522847 34.5490746,29 34.0052288,29 L16.9947712,29 C16.4453742,29 16,28.5561352 16,28 L16,28 Z M16,34 C16,33.4477153 16.4509254,33 16.9947712,33 L34.0052288,33 C34.5546258,33 35,33.4438648 35,34 L35,34 C35,34.5522847 34.5490746,35 34.0052288,35 L16.9947712,35 C16.4453742,35 16,34.5561352 16,34 L16,34 Z"></path>
                    </g>
                </g>
            </g>
        </g>
    </g>
</svg>